<svg xmlns="http://www.w3.org/2000/svg" xmlns:xlink="http://www.w3.org/1999/xlink" version="1.1" id="&#1057;&#1083;&#1086;&#1081;_1" x="0px" y="0px" width="26px" height="26px" viewBox="0 0 100 100" enable-background="new 0 0 100 100" xml:space="preserve">
<path d="M81.819,18.181C73.32,9.682,62.02,5,50,5C37.98,5,26.68,9.682,18.18,18.181C9.681,26.681,5,37.981,5,50  c0,12.02,4.681,23.321,13.18,31.82c8.499,8.5,19.8,13.181,31.82,13.181c12.021,0,23.321-4.681,31.819-13.181  C90.319,73.321,95,62.021,95,50.001C95,37.981,90.319,26.68,81.819,18.181z M74.749,74.75C68.139,81.36,59.35,85.001,50,85.001  c-9.349,0-18.138-3.641-24.749-10.251C18.641,68.139,15,59.35,15,50.001s3.641-18.138,10.251-24.749C31.862,18.642,40.651,15,50,15  s18.138,3.641,24.749,10.252C81.359,31.863,85,40.652,85,50.001C85,59.35,81.359,68.139,74.749,74.75z"/>
<circle cx="50" cy="28.992" r="6"/>
<polygon points="55,72.009 55,38.009 40,38.009 40,43.009 45,43.009 45,72.009 40,72.009 40,77.009 60,77.009 60,72.009 "/>
</svg>